# xmcd
#
# Track frame offsets: 
#        150
#        14823
#        42096
#        61569
#        84642
#        107190
#        129138
#        150561
#        168759
#        189882
#        216030
#        238803
#        260601
#        280899
#        304497
#
# Disc length: 4375 seconds
#
# Revision: 0
# Processed by: cddbd v1.5.2PL0 Copyright (c) Steve Scherf et al.
# Submitted via: ExactAudioCopy v0.99pb4
#
DISCID=c611150f
DTITLE=The Impressions - Loving Power - It's About Time
DYEAR=1976
DGENRE=Soul
TTITLE0=Loving Power
TTITLE1=Sunshine
TTITLE2=I Can't Wait To See You
TTITLE3=If You Have To Ask
TTITLE4=You Can't Be Wrong (All The Time)
TTITLE5=I Wish I'd Stayed In Bed
TTITLE6=Keep On Trying
TTITLE7=In The Palm Of My Hands
TTITLE8=Choice Of Colors
TTITLE9=Same Old Heartaches
TTITLE10=I Need You
TTITLE11=This Time
TTITLE12=Stardust
TTITLE13=I'm A Fool For Love
TTITLE14=What Might Have Been
EXTD=
EXTT0=
EXTT1=
EXTT2=
EXTT3=
EXTT4=
EXTT5=
EXTT6=
EXTT7=
EXTT8=
EXTT9=
EXTT10=
EXTT11=
EXTT12=
EXTT13=
EXTT14=
PLAYORDER=
